<svg xmlns="http://www.w3.org/2000/svg" xmlns:xlink="http://www.w3.org/1999/xlink" xmlns:lucid="lucid" width="861.36" height="1420"><g transform="translate(-137.1975308641975 -60)" lucid:page-tab-id="0_0"><path d="M198.56 86c0-3.3 2.7-6 6-6h208c3.3 0 6 2.7 6 6v148c0 3.3-2.7 6-6 6h-208c-3.3 0-6-2.7-6-6z" stroke="#5e5e5e" stroke-width="3" fill="#fff"/><use xlink:href="#a" transform="matrix(1,0,0,1,210.55933641635295,92) translate(3.6790123456790127 60.27777777777778)"/><use xlink:href="#b" transform="matrix(1,0,0,1,210.55933641635295,92) translate(88.74074074074073 60.27777777777778)"/><use xlink:href="#c" transform="matrix(1,0,0,1,210.55933641635295,92) translate(135.59259259259258 60.27777777777778)"/><use xlink:href="#d" transform="matrix(1,0,0,1,210.55933641635295,92) translate(27.660493827160494 86.94444444444446)"/><use xlink:href="#e" transform="matrix(1,0,0,1,210.55933641635295,92) translate(59.69753086419753 86.94444444444446)"/><use xlink:href="#f" transform="matrix(1,0,0,1,210.55933641635295,92) translate(114.01851851851852 86.94444444444446)"/><path d="M303.7 283.53c2.7-1.95 7.03-1.95 9.7 0l100.3 72.94c2.7 1.95 2.7 5.1 0 7.06l-100.3 72.94c-2.67 1.95-7 1.95-9.7 0l-100.3-72.94c-2.67-1.95-2.67-5.1 0-7.06z" stroke="#5e5e5e" stroke-width="3" fill="#fff"/><use xlink:href="#g" transform="matrix(1,0,0,1,203.55933641635295,285) translate(43.83833333333332 64.65277777777777)"/><use xlink:href="#h" transform="matrix(1,0,0,1,203.55933641635295,285) translate(67.29512345679011 64.65277777777777)"/><use xlink:href="#i" transform="matrix(1,0,0,1,203.55933641635295,285) translate(127.78895061728394 64.65277777777777)"/><use xlink:href="#j" transform="matrix(1,0,0,1,203.55933641635295,285) translate(49.51117283950617 91.31944444444446)"/><path d="M303.7 483.53c2.7-1.95 7.03-1.95 9.7 0l100.3 72.94c2.7 1.95 2.7 5.1 0 7.06l-100.3 72.94c-2.67 1.95-7 1.95-9.7 0l-100.3-72.94c-2.67-1.95-2.67-5.1 0-7.06z" stroke="#5e5e5e" stroke-width="3" fill="#fff"/><use xlink:href="#k" transform="matrix(1,0,0,1,203.55933641635295,485) translate(79.10993827160493 36.52777777777778)"/><use xlink:href="#l" transform="matrix(1,0,0,1,203.55933641635295,485) translate(40.282777777777774 63.19444444444445)"/><use xlink:href="#m" transform="matrix(1,0,0,1,203.55933641635295,485) translate(121.57907407407407 63.19444444444445)"/><use xlink:href="#n" transform="matrix(1,0,0,1,203.55933641635295,485) translate(39.63462962962963 89.86111111111111)"/><use xlink:href="#o" transform="matrix(1,0,0,1,203.55933641635295,485) translate(101.30129629629629 89.86111111111111)"/><path d="M498.56 486c0-3.3 2.7-6 6-6h188c3.3 0 6 2.7 6 6v148c0 3.3-2.7 6-6 6h-188c-3.3 0-6-2.7-6-6z" stroke="#5e5e5e" stroke-width="3" fill="#fff"/><use xlink:href="#a" transform="matrix(1,0,0,1,510.55933641635283,492) translate(17.104938271604937 30.52777777777778)"/><use xlink:href="#c" transform="matrix(1,0,0,1,510.55933641635283,492) translate(102.16666666666666 30.52777777777778)"/><use xlink:href="#p" transform="matrix(1,0,0,1,510.55933641635283,492) translate(25.191358024691354 57.19444444444445)"/><use xlink:href="#q" transform="matrix(1,0,0,1,510.55933641635283,492) translate(75.68518518518519 57.19444444444445)"/><use xlink:href="#r" transform="matrix(1,0,0,1,510.55933641635283,492) translate(20.160493827160494 83.86111111111111)"/><use xlink:href="#d" transform="matrix(1,0,0,1,510.55933641635283,492) translate(75.65432098765432 83.86111111111111)"/><use xlink:href="#s" transform="matrix(1,0,0,1,510.55933641635283,492) translate(107.69135802469135 83.86111111111111)"/><use xlink:href="#f" transform="matrix(1,0,0,1,510.55933641635283,492) translate(60.839506172839506 110.5277777777778)"/><path d="M593.87 703.75c2.6-2.07 6.8-2.07 9.37 0l90.63 72.5c2.6 2.07 2.6 5.43 0 7.5l-90.63 72.5c-2.58 2.07-6.78 2.07-9.37 0l-90.63-72.5c-2.58-2.07-2.58-5.43 0-7.5z" stroke="#5e5e5e" stroke-width="3" fill="#fff"/><use xlink:href="#g" transform="matrix(1,0,0,1,503.55933641635283,705) translate(33.338333333333324 64.65277777777777)"/><use xlink:href="#h" transform="matrix(1,0,0,1,503.55933641635283,705) translate(56.79512345679011 64.65277777777777)"/><use xlink:href="#i" transform="matrix(1,0,0,1,503.55933641635283,705) translate(117.28895061728394 64.65277777777777)"/><use xlink:href="#j" transform="matrix(1,0,0,1,503.55933641635283,705) translate(39.51117283950617 91.31944444444446)"/><path d="M938.56 720c22.1 0 40 26.86 40 60s-17.9 60-40 60h-120c-22.1 0-40-26.86-40-60s17.9-60 40-60z" stroke="#5e5e5e" stroke-width="3" fill="#fff"/><use xlink:href="#t" transform="matrix(1,0,0,1,783.559336416353,725) translate(46.94444444444444 45.27777777777778)"/><use xlink:href="#u" transform="matrix(1,0,0,1,783.559336416353,725) translate(50 71.94444444444446)"/><path d="M308.56 242.5v19.63" stroke="#5e5e5e" stroke-width="2" fill="none"/><path d="M309.56 242.53h-2v-1.03h2z" fill="#5e5e5e"/><path d="M308.56 277.4l-4.64-14.27h9.27z" stroke="#5e5e5e" stroke-width="2" fill="#5e5e5e"/><path d="M598.56 642.5v39.76" stroke="#5e5e5e" stroke-width="2" fill="none"/><path d="M599.56 642.53h-2v-1.03h2z" fill="#5e5e5e"/><path d="M598.56 697.52l-4.64-14.26h9.27z" stroke="#5e5e5e" stroke-width="2" fill="#5e5e5e"/><path d="M303.7 1123.53c2.7-1.95 7.03-1.95 9.7 0l100.3 72.94c2.7 1.95 2.7 5.1 0 7.06l-100.3 72.94c-2.67 1.95-7 1.95-9.7 0l-100.3-72.94c-2.67-1.95-2.67-5.1 0-7.06z" stroke="#5e5e5e" stroke-width="3" fill="#fff"/><use xlink:href="#k" transform="matrix(1,0,0,1,203.55933641635295,1125) translate(79.10993827160493 36.52777777777778)"/><use xlink:href="#v" transform="matrix(1,0,0,1,203.55933641635295,1125) translate(45.2519135802469 63.19444444444445)"/><use xlink:href="#w" transform="matrix(1,0,0,1,203.55933641635295,1125) translate(50.09759259259259 89.86111111111111)"/><use xlink:href="#x" transform="matrix(1,0,0,1,203.55933641635295,1125) translate(104.41858024691358 89.86111111111111)"/><use xlink:href="#o" transform="matrix(1,0,0,1,203.55933641635295,1125) translate(70.46796296296297 116.5277777777778)"/><path d="M498.56 926c0-3.3 2.7-6 6-6h188c3.3 0 6 2.7 6 6v148c0 3.3-2.7 6-6 6h-188c-3.3 0-6-2.7-6-6z" stroke="#5e5e5e" stroke-width="3" fill="#fff"/><use xlink:href="#a" transform="matrix(1,0,0,1,510.55933641635283,932) translate(17.104938271604937 30.52777777777778)"/><use xlink:href="#c" transform="matrix(1,0,0,1,510.55933641635283,932) translate(102.16666666666666 30.52777777777778)"/><use xlink:href="#p" transform="matrix(1,0,0,1,510.55933641635283,932) translate(2.999999999999986 57.19444444444445)"/><use xlink:href="#y" transform="matrix(1,0,0,1,510.55933641635283,932) translate(53.493827160493815 57.19444444444445)"/><use xlink:href="#r" transform="matrix(1,0,0,1,510.55933641635283,932) translate(20.160493827160494 83.86111111111111)"/><use xlink:href="#d" transform="matrix(1,0,0,1,510.55933641635283,932) translate(75.65432098765432 83.86111111111111)"/><use xlink:href="#s" transform="matrix(1,0,0,1,510.55933641635283,932) translate(107.69135802469135 83.86111111111111)"/><use xlink:href="#f" transform="matrix(1,0,0,1,510.55933641635283,932) translate(60.839506172839506 110.5277777777778)"/><path d="M593.87 1123.75c2.6-2.07 6.8-2.07 9.37 0l90.63 72.5c2.6 2.07 2.6 5.43 0 7.5l-90.63 72.5c-2.58 2.07-6.78 2.07-9.37 0l-90.63-72.5c-2.58-2.07-2.58-5.43 0-7.5z" stroke="#5e5e5e" stroke-width="3" fill="#fff"/><use xlink:href="#g" transform="matrix(1,0,0,1,503.55933641635283,1125) translate(33.338333333333324 64.65277777777777)"/><use xlink:href="#h" transform="matrix(1,0,0,1,503.55933641635283,1125) translate(56.79512345679011 64.65277777777777)"/><use xlink:href="#i" transform="matrix(1,0,0,1,503.55933641635283,1125) translate(117.28895061728394 64.65277777777777)"/><use xlink:href="#j" transform="matrix(1,0,0,1,503.55933641635283,1125) translate(39.51117283950617 91.31944444444446)"/><path d="M358.56 1340c22.1 0 40 26.86 40 60s-17.9 60-40 60h-120c-22.1 0-40-26.86-40-60s17.9-60 40-60z" stroke="#5e5e5e" stroke-width="3" fill="#fff"/><use xlink:href="#t" transform="matrix(1,0,0,1,203.55933641635295,1345) translate(46.94444444444444 45.27777777777778)"/><use xlink:href="#z" transform="matrix(1,0,0,1,203.55933641635295,1345) translate(41.388888888888886 71.94444444444446)"/><path d="M598.56 1082.5v19.76" stroke="#5e5e5e" stroke-width="2" fill="none"/><path d="M599.56 1082.53h-2v-1.03h2z" fill="#5e5e5e"/><path d="M598.56 1117.52l-4.64-14.26h9.27z" stroke="#5e5e5e" stroke-width="2" fill="#5e5e5e"/><path d="M309.56 1320h-2v-.4h2zm0-21.73h-2v-17.9h2z" fill="#5e5e5e"/><path d="M309.56 1279.4v1h-2v-1.04zM308.56 1335.26l-4.64-14.26h9.27z" fill="#5e5e5e"/><path d="M308.56 1338.5l-6-18.5h12zm-3.26-16.5l3.26 10.03 3.26-10.03z" fill="#5e5e5e"/><use xlink:href="#A" transform="matrix(1,0,0,1,296.75686728055047,1298.2694384372483) translate(0 14.222222222222223)"/><path d="M309.56 449.33h-2v-8.96h2z" fill="#5e5e5e"/><path d="M309.56 439.4v1h-2v-1.04zM308.56 477.4l-2.2-6.73h4.38z" fill="#5e5e5e"/><path d="M308.56 480.63l-3.24-9.96h2.1l1.14 3.5 1.13-3.5h2.1z" fill="#5e5e5e"/><use xlink:href="#A" transform="matrix(1,0,0,1,296.75686728055047,449.3333333333333) translate(0 14.222222222222223)"/><path d="M876.1 359.92l2.54 2.53.92 3.42V700h-2V366.13l-.72-2.64-1.77-1.8-2.64-.7H842.4v-2h30.3zM418.13 361v-2h393.66v2z" fill="#5e5e5e"/><path d="M418.14 361h-1.03l.13-.28-.27-1.72h1.18zM878.56 715.26L873.92 701h9.27z" fill="#5e5e5e"/><path d="M878.56 718.5l-6-18.5h12zM875.3 702l3.26 10.03 3.26-10.03z" fill="#5e5e5e"/><g><use xlink:href="#B" transform="matrix(1,0,0,1,811.7803626492208,349.3333333333333) translate(0 14.222222222222223)"/></g><path d="M441.78 561h-23.66v-2h23.66zm36.78 0h-6.16v-2h6.16z" fill="#5e5e5e"/><path d="M418.14 561h-1.03l.13-.28-.27-1.72h1.18zM493.82 560l-14.26 4.64v-9.28z" fill="#5e5e5e"/><path d="M497.06 560l-18.5 6v-12zm-16.5 3.26L490.6 560l-10.04-3.26z" fill="#5e5e5e"/><g><use xlink:href="#B" transform="matrix(1,0,0,1,441.78036264922076,549.3333333333334) translate(0 14.222222222222223)"/></g><path d="M161 1193.87l.7 2.64 1.8 1.8 2.63.7h15.37v2h-15.63l-3.42-.92-2.53-2.53-.92-3.42V890.67h2zM199 561h-32.87l-2.64.7-1.8 1.8-.7 2.63v303.2h-2V565.87l.92-3.42 2.53-2.53 3.42-.92H199z" fill="#5e5e5e"/><path d="M199.88 559.28l.28 1.72h-1.2v-2h1.05zM196.76 1200l-14.26 4.64v-9.28z" fill="#5e5e5e"/><path d="M200 1200l-18.5 6v-12zm-16.5 3.26l10.03-3.26-10.03-3.26z" fill="#5e5e5e"/><g><use xlink:href="#A" transform="matrix(1,0,0,1,148.1975308641975,869.3333333333336) translate(0 14.222222222222223)"/></g><path d="M721.86 781h-23.58v-2h23.58zm36.7 0h-6.08v-2h6.08z" fill="#5e5e5e"/><path d="M698.3 781h-1.15l.2-.63-.26-1.37h1.2zM773.82 780l-14.26 4.64v-9.28z" fill="#5e5e5e"/><path d="M777.06 780l-18.5 6v-12zm-16.5 3.26L770.6 780l-10.04-3.26z" fill="#5e5e5e"/><g><use xlink:href="#B" transform="matrix(1,0,0,1,721.8610468084727,769.3333333333334) translate(0 14.222222222222223)"/></g><path d="M309.56 773.87l.7 2.64 1.8 1.8 2.63.7h7.38v2h-7.65l-3.42-.92-2.52-2.53-.92-3.42V657.87h2zM498.84 779v2H345.7v-2z" fill="#5e5e5e"/><path d="M499.77 779.63l.26 1.37h-1.22v-2h1.17zM313.2 656.87h-9.28l4.64-14.26z" fill="#5e5e5e"/><path d="M314.57 657.87h-12.02l6-18.5zm-9.27-2h6.52l-3.26-10.03z" fill="#5e5e5e"/><g><use xlink:href="#A" transform="matrix(1,0,0,1,322.0821545687349,769.3333333333334) translate(0 14.222222222222223)"/></g><path d="M327.2 1001h-12.5l-2.65.7-1.78 1.8-.7 2.63v113.5h-2v-113.76l.9-3.42 2.54-2.53 3.43-.92h12.76zm151.36 0H357.8v-2h120.76z" fill="#5e5e5e"/><path d="M309.56 1120.64l-2-.03v-1h2zM493.82 1000l-14.26 4.64v-9.28z" fill="#5e5e5e"/><path d="M497.06 1000l-18.5 6v-12zm-16.5 3.26l10.03-3.26-10.04-3.26z" fill="#5e5e5e"/><g><use xlink:href="#B" transform="matrix(1,0,0,1,327.1867995449591,989.3333333333334) translate(0 14.222222222222223)"/></g><path d="M446.68 1201h-11.06v-2h11.06zm52.16 0h-28.56v-2h28.56z" fill="#5e5e5e"/><path d="M499.77 1199.63l.26 1.37h-1.22v-2h1.17zM434.62 1204.64l-14.27-4.64 14.27-4.64z" fill="#5e5e5e"/><path d="M435.62 1206l-18.5-6 18.5-6zm-12.03-6l10.02 3.26v-6.52z" fill="#5e5e5e"/><g><use xlink:href="#A" transform="matrix(1,0,0,1,446.67571767299654,1189.3333333333333) translate(0 14.222222222222223)"/></g><path d="M879.56 1194.13l-.92 3.42-2.53 2.53-3.4.92H698.27v-2h174.15l2.64-.7 1.77-1.8.72-2.63v-71.8h2zm0-93.4h-2V860h2z" fill="#5e5e5e"/><path d="M698.3 1201h-1.15l.2-.63-.26-1.37h1.2zM883.2 859h-9.28l4.64-14.26z" fill="#5e5e5e"/><path d="M884.57 860h-12.02l6-18.5zm-9.27-2h6.52l-3.26-10.03z" fill="#5e5e5e"/><g><use xlink:href="#B" transform="matrix(1,0,0,1,863.2506944410443,1100.722515517603) translate(0 14.222222222222223)"/></g><defs><path fill="#333" d="M205 0l-28-72H64L36 0H1l101-248h38L239 0h-34zm-38-99l-47-123c-12 45-31 82-46 123h93" id="C"/><path fill="#333" d="M24 0v-261h32V0H24" id="D"/><path fill="#333" d="M100-194c62-1 85 37 85 99 1 63-27 99-86 99S16-35 15-95c0-66 28-99 85-99zM99-20c44 1 53-31 53-75 0-43-8-75-51-75s-53 32-53 75 10 74 51 75" id="E"/><path fill="#333" d="M96-169c-40 0-48 33-48 73s9 75 48 75c24 0 41-14 43-38l32 2c-6 37-31 61-74 61-59 0-76-41-82-99-10-93 101-131 147-64 4 7 5 14 7 22l-32 3c-4-21-16-35-41-35" id="F"/><path fill="#333" d="M141-36C126-15 110 5 73 4 37 3 15-17 15-53c-1-64 63-63 125-63 3-35-9-54-41-54-24 1-41 7-42 31l-33-3c5-37 33-52 76-52 45 0 72 20 72 64v82c-1 20 7 32 28 27v20c-31 9-61-2-59-35zM48-53c0 20 12 33 32 33 41-3 63-29 60-74-43 2-92-5-92 41" id="G"/><path fill="#333" d="M59-47c-2 24 18 29 38 22v24C64 9 27 4 27-40v-127H5v-23h24l9-43h21v43h35v23H59v120" id="H"/><path fill="#333" d="M100-194c63 0 86 42 84 106H49c0 40 14 67 53 68 26 1 43-12 49-29l28 8c-11 28-37 45-77 45C44 4 14-33 15-96c1-61 26-98 85-98zm52 81c6-60-76-77-97-28-3 7-6 17-6 28h103" id="I"/><g id="a"><use transform="matrix(0.06172839506172839,0,0,0.06172839506172839,0,0)" xlink:href="#C"/><use transform="matrix(0.06172839506172839,0,0,0.06172839506172839,14.814814814814813,0)" xlink:href="#D"/><use transform="matrix(0.06172839506172839,0,0,0.06172839506172839,19.691358024691354,0)" xlink:href="#D"/><use transform="matrix(0.06172839506172839,0,0,0.06172839506172839,24.5679012345679,0)" xlink:href="#E"/><use transform="matrix(0.06172839506172839,0,0,0.06172839506172839,36.913580246913575,0)" xlink:href="#F"/><use transform="matrix(0.06172839506172839,0,0,0.06172839506172839,48.02469135802468,0)" xlink:href="#G"/><use transform="matrix(0.06172839506172839,0,0,0.06172839506172839,60.37037037037036,0)" xlink:href="#H"/><use transform="matrix(0.06172839506172839,0,0,0.06172839506172839,66.5432098765432,0)" xlink:href="#I"/></g><path fill="#333" d="M206 0h-36l-40-164L89 0H53L-1-190h32L70-26l43-164h34l41 164 42-164h31" id="J"/><path fill="#333" d="M117-194c89-4 53 116 60 194h-32v-121c0-31-8-49-39-48C34-167 62-67 57 0H25l-1-190h30c1 10-1 24 2 32 11-22 29-35 61-36" id="K"/><g id="b"><use transform="matrix(0.06172839506172839,0,0,0.06172839506172839,0,0)" xlink:href="#E"/><use transform="matrix(0.06172839506172839,0,0,0.06172839506172839,12.345679012345679,0)" xlink:href="#J"/><use transform="matrix(0.06172839506172839,0,0,0.06172839506172839,28.333333333333332,0)" xlink:href="#K"/></g><path fill="#333" d="M30-248c87 1 191-15 191 75 0 78-77 80-158 76V0H30v-248zm33 125c57 0 124 11 124-50 0-59-68-47-124-48v98" id="L"/><path fill="#333" d="M185-189c-5-48-123-54-124 2 14 75 158 14 163 119 3 78-121 87-175 55-17-10-28-26-33-46l33-7c5 56 141 63 141-1 0-78-155-14-162-118-5-82 145-84 179-34 5 7 8 16 11 25" id="M"/><path fill="#333" d="M232-93c-1 65-40 97-104 97C67 4 28-28 28-90v-158h33c8 89-33 224 67 224 102 0 64-133 71-224h33v155" id="N"/><path fill="#333" d="M135-143c-3-34-86-38-87 0 15 53 115 12 119 90S17 21 10-45l28-5c4 36 97 45 98 0-10-56-113-15-118-90-4-57 82-63 122-42 12 7 21 19 24 35" id="O"/><g id="c"><use transform="matrix(0.06172839506172839,0,0,0.06172839506172839,0,0)" xlink:href="#L"/><use transform="matrix(0.06172839506172839,0,0,0.06172839506172839,14.814814814814813,0)" xlink:href="#M"/><use transform="matrix(0.06172839506172839,0,0,0.06172839506172839,29.629629629629626,0)" xlink:href="#N"/><use transform="matrix(0.06172839506172839,0,0,0.06172839506172839,45.61728395061728,0)" xlink:href="#O"/></g><path fill="#333" d="M101-234c-31-9-42 10-38 44h38v23H63V0H32v-167H5v-23h27c-7-52 17-82 69-68v24" id="P"/><path fill="#333" d="M114-163C36-179 61-72 57 0H25l-1-190h30c1 12-1 29 2 39 6-27 23-49 58-41v29" id="Q"/><g id="d"><use transform="matrix(0.06172839506172839,0,0,0.06172839506172839,0,0)" xlink:href="#P"/><use transform="matrix(0.06172839506172839,0,0,0.06172839506172839,6.172839506172839,0)" xlink:href="#E"/><use transform="matrix(0.06172839506172839,0,0,0.06172839506172839,18.51851851851852,0)" xlink:href="#Q"/></g><path fill="#333" d="M106-169C34-169 62-67 57 0H25v-261h32l-1 103c12-21 28-36 61-36 89 0 53 116 60 194h-32v-121c2-32-8-49-39-48" id="R"/><g id="e"><use transform="matrix(0.06172839506172839,0,0,0.06172839506172839,0,0)" xlink:href="#I"/><use transform="matrix(0.06172839506172839,0,0,0.06172839506172839,12.345679012345679,0)" xlink:href="#G"/><use transform="matrix(0.06172839506172839,0,0,0.06172839506172839,24.691358024691358,0)" xlink:href="#F"/><use transform="matrix(0.06172839506172839,0,0,0.06172839506172839,35.80246913580247,0)" xlink:href="#R"/></g><path fill="#333" d="M108 0H70L1-190h34L89-25l56-165h34" id="S"/><g id="f"><use transform="matrix(0.06172839506172839,0,0,0.06172839506172839,0,0)" xlink:href="#I"/><use transform="matrix(0.06172839506172839,0,0,0.06172839506172839,12.345679012345679,0)" xlink:href="#S"/><use transform="matrix(0.06172839506172839,0,0,0.06172839506172839,23.45679012345679,0)" xlink:href="#I"/><use transform="matrix(0.06172839506172839,0,0,0.06172839506172839,35.80246913580247,0)" xlink:href="#K"/><use transform="matrix(0.06172839506172839,0,0,0.06172839506172839,48.148148148148145,0)" xlink:href="#H"/></g><path fill="#333" d="M33 0v-248h34V0H33" id="T"/><g id="g"><use transform="matrix(0.06172839506172839,0,0,0.06172839506172839,0,0)" xlink:href="#T"/><use transform="matrix(0.06172839506172839,0,0,0.06172839506172839,6.172839506172839,0)" xlink:href="#O"/></g><g id="h"><use transform="matrix(0.06172839506172839,0,0,0.06172839506172839,0,0)" xlink:href="#I"/><use transform="matrix(0.06172839506172839,0,0,0.06172839506172839,12.345679012345679,0)" xlink:href="#S"/><use transform="matrix(0.06172839506172839,0,0,0.06172839506172839,23.45679012345679,0)" xlink:href="#I"/><use transform="matrix(0.06172839506172839,0,0,0.06172839506172839,35.80246913580247,0)" xlink:href="#K"/><use transform="matrix(0.06172839506172839,0,0,0.06172839506172839,48.148148148148145,0)" xlink:href="#H"/></g><path fill="#333" d="M84 4C-5 8 30-112 23-190h32v120c0 31 7 50 39 49 72-2 45-101 50-169h31l1 190h-30c-1-10 1-25-2-33-11 22-28 36-60 37" id="U"/><path fill="#333" d="M179-190L93 31C79 59 56 82 12 73V49c39 6 53-20 64-50L1-190h34L92-34l54-156h33" id="V"/><g id="i"><use transform="matrix(0.06172839506172839,0,0,0.06172839506172839,0,0)" xlink:href="#P"/><use transform="matrix(0.06172839506172839,0,0,0.06172839506172839,6.172839506172839,0)" xlink:href="#U"/><use transform="matrix(0.06172839506172839,0,0,0.06172839506172839,18.51851851851852,0)" xlink:href="#D"/><use transform="matrix(0.06172839506172839,0,0,0.06172839506172839,23.395061728395063,0)" xlink:href="#D"/><use transform="matrix(0.06172839506172839,0,0,0.06172839506172839,28.271604938271608,0)" xlink:href="#V"/></g><path fill="#333" d="M85-194c31 0 48 13 60 33l-1-100h32l1 261h-30c-2-10 0-23-3-31C134-8 116 4 85 4 32 4 16-35 15-94c0-66 23-100 70-100zm9 24c-40 0-46 34-46 75 0 40 6 74 45 74 42 0 51-32 51-76 0-42-9-74-50-73" id="W"/><path fill="#333" d="M103-251c84 0 111 97 45 133-19 10-37 24-39 52H78c0-63 77-55 77-114 0-30-21-42-52-43-32 0-53 17-56 46l-32-2c7-45 34-72 88-72zM77 0v-35h34V0H77" id="X"/><g id="j"><use transform="matrix(0.06172839506172839,0,0,0.06172839506172839,0,0)" xlink:href="#Q"/><use transform="matrix(0.06172839506172839,0,0,0.06172839506172839,7.345679012345679,0)" xlink:href="#I"/><use transform="matrix(0.06172839506172839,0,0,0.06172839506172839,19.691358024691358,0)" xlink:href="#O"/><use transform="matrix(0.06172839506172839,0,0,0.06172839506172839,30.80246913580247,0)" xlink:href="#E"/><use transform="matrix(0.06172839506172839,0,0,0.06172839506172839,43.148148148148145,0)" xlink:href="#U"/><use transform="matrix(0.06172839506172839,0,0,0.06172839506172839,55.49382716049382,0)" xlink:href="#Q"/><use transform="matrix(0.06172839506172839,0,0,0.06172839506172839,62.8395061728395,0)" xlink:href="#F"/><use transform="matrix(0.06172839506172839,0,0,0.06172839506172839,73.9506172839506,0)" xlink:href="#I"/><use transform="matrix(0.06172839506172839,0,0,0.06172839506172839,86.29629629629629,0)" xlink:href="#W"/><use transform="matrix(0.06172839506172839,0,0,0.06172839506172839,98.64197530864197,0)" xlink:href="#X"/></g><path fill="#333" d="M30-248c118-7 216 8 213 122C240-48 200 0 122 0H30v-248zM63-27c89 8 146-16 146-99s-60-101-146-95v194" id="Y"/><g id="k"><use transform="matrix(0.06172839506172839,0,0,0.06172839506172839,0,0)" xlink:href="#Y"/><use transform="matrix(0.06172839506172839,0,0,0.06172839506172839,15.987654320987653,0)" xlink:href="#E"/><use transform="matrix(0.06172839506172839,0,0,0.06172839506172839,28.333333333333332,0)" xlink:href="#I"/><use transform="matrix(0.06172839506172839,0,0,0.06172839506172839,40.67901234567901,0)" xlink:href="#O"/></g><path fill="#333" d="M24-231v-30h32v30H24zM24 0v-190h32V0H24" id="Z"/><g id="l"><use transform="matrix(0.06172839506172839,0,0,0.06172839506172839,0,0)" xlink:href="#G"/><use transform="matrix(0.06172839506172839,0,0,0.06172839506172839,12.345679012345679,0)" xlink:href="#D"/><use transform="matrix(0.06172839506172839,0,0,0.06172839506172839,17.22222222222222,0)" xlink:href="#D"/><use transform="matrix(0.06172839506172839,0,0,0.06172839506172839,22.098765432098766,0)" xlink:href="#Z"/><use transform="matrix(0.06172839506172839,0,0,0.06172839506172839,26.97530864197531,0)" xlink:href="#G"/><use transform="matrix(0.06172839506172839,0,0,0.06172839506172839,39.32098765432099,0)" xlink:href="#K"/><use transform="matrix(0.06172839506172839,0,0,0.06172839506172839,51.666666666666664,0)" xlink:href="#F"/><use transform="matrix(0.06172839506172839,0,0,0.06172839506172839,62.77777777777777,0)" xlink:href="#I"/></g><g id="m"><use transform="matrix(0.06172839506172839,0,0,0.06172839506172839,0,0)" xlink:href="#R"/><use transform="matrix(0.06172839506172839,0,0,0.06172839506172839,12.345679012345679,0)" xlink:href="#G"/><use transform="matrix(0.06172839506172839,0,0,0.06172839506172839,24.691358024691358,0)" xlink:href="#S"/><use transform="matrix(0.06172839506172839,0,0,0.06172839506172839,35.80246913580247,0)" xlink:href="#I"/></g><path fill="#333" d="M115-194c55 1 70 41 70 98S169 2 115 4C84 4 66-9 55-30l1 105H24l-1-265h31l2 30c10-21 28-34 59-34zm-8 174c40 0 45-34 45-75s-6-73-45-74c-42 0-51 32-51 76 0 43 10 73 51 73" id="aa"/><g id="n"><use transform="matrix(0.06172839506172839,0,0,0.06172839506172839,0,0)" xlink:href="#O"/><use transform="matrix(0.06172839506172839,0,0,0.06172839506172839,11.11111111111111,0)" xlink:href="#aa"/><use transform="matrix(0.06172839506172839,0,0,0.06172839506172839,23.45679012345679,0)" xlink:href="#G"/><use transform="matrix(0.06172839506172839,0,0,0.06172839506172839,35.80246913580247,0)" xlink:href="#Q"/><use transform="matrix(0.06172839506172839,0,0,0.06172839506172839,43.148148148148145,0)" xlink:href="#I"/></g><g id="o"><use transform="matrix(0.06172839506172839,0,0,0.06172839506172839,0,0)" xlink:href="#L"/><use transform="matrix(0.06172839506172839,0,0,0.06172839506172839,14.814814814814813,0)" xlink:href="#M"/><use transform="matrix(0.06172839506172839,0,0,0.06172839506172839,29.629629629629626,0)" xlink:href="#N"/><use transform="matrix(0.06172839506172839,0,0,0.06172839506172839,45.61728395061728,0)" xlink:href="#O"/><use transform="matrix(0.06172839506172839,0,0,0.06172839506172839,56.72839506172839,0)" xlink:href="#X"/></g><path fill="#333" d="M210-169c-67 3-38 105-44 169h-31v-121c0-29-5-50-35-48C34-165 62-65 56 0H25l-1-190h30c1 10-1 24 2 32 10-44 99-50 107 0 11-21 27-35 58-36 85-2 47 119 55 194h-31v-121c0-29-5-49-35-48" id="ab"/><g id="p"><use transform="matrix(0.06172839506172839,0,0,0.06172839506172839,0,0)" xlink:href="#P"/><use transform="matrix(0.06172839506172839,0,0,0.06172839506172839,6.172839506172839,0)" xlink:href="#Q"/><use transform="matrix(0.06172839506172839,0,0,0.06172839506172839,13.518518518518519,0)" xlink:href="#E"/><use transform="matrix(0.06172839506172839,0,0,0.06172839506172839,25.864197530864196,0)" xlink:href="#ab"/></g><g id="q"><use transform="matrix(0.06172839506172839,0,0,0.06172839506172839,0,0)" xlink:href="#G"/><use transform="matrix(0.06172839506172839,0,0,0.06172839506172839,12.345679012345679,0)" xlink:href="#D"/><use transform="matrix(0.06172839506172839,0,0,0.06172839506172839,17.22222222222222,0)" xlink:href="#D"/><use transform="matrix(0.06172839506172839,0,0,0.06172839506172839,22.098765432098766,0)" xlink:href="#Z"/><use transform="matrix(0.06172839506172839,0,0,0.06172839506172839,26.97530864197531,0)" xlink:href="#G"/><use transform="matrix(0.06172839506172839,0,0,0.06172839506172839,39.32098765432099,0)" xlink:href="#K"/><use transform="matrix(0.06172839506172839,0,0,0.06172839506172839,51.666666666666664,0)" xlink:href="#F"/><use transform="matrix(0.06172839506172839,0,0,0.06172839506172839,62.77777777777777,0)" xlink:href="#I"/></g><g id="r"><use transform="matrix(0.06172839506172839,0,0,0.06172839506172839,0,0)" xlink:href="#P"/><use transform="matrix(0.06172839506172839,0,0,0.06172839506172839,6.172839506172839,0)" xlink:href="#E"/><use transform="matrix(0.06172839506172839,0,0,0.06172839506172839,18.51851851851852,0)" xlink:href="#Q"/><use transform="matrix(0.06172839506172839,0,0,0.06172839506172839,25.864197530864196,0)" xlink:href="#F"/><use transform="matrix(0.06172839506172839,0,0,0.06172839506172839,36.9753086419753,0)" xlink:href="#I"/></g><g id="s"><use transform="matrix(0.06172839506172839,0,0,0.06172839506172839,0,0)" xlink:href="#I"/><use transform="matrix(0.06172839506172839,0,0,0.06172839506172839,12.345679012345679,0)" xlink:href="#G"/><use transform="matrix(0.06172839506172839,0,0,0.06172839506172839,24.691358024691358,0)" xlink:href="#F"/><use transform="matrix(0.06172839506172839,0,0,0.06172839506172839,35.80246913580247,0)" xlink:href="#R"/></g><g id="t"><use transform="matrix(0.06172839506172839,0,0,0.06172839506172839,0,0)" xlink:href="#C"/><use transform="matrix(0.06172839506172839,0,0,0.06172839506172839,14.814814814814813,0)" xlink:href="#D"/><use transform="matrix(0.06172839506172839,0,0,0.06172839506172839,19.691358024691354,0)" xlink:href="#D"/><use transform="matrix(0.06172839506172839,0,0,0.06172839506172839,24.5679012345679,0)" xlink:href="#E"/><use transform="matrix(0.06172839506172839,0,0,0.06172839506172839,36.913580246913575,0)" xlink:href="#F"/><use transform="matrix(0.06172839506172839,0,0,0.06172839506172839,48.02469135802468,0)" xlink:href="#G"/><use transform="matrix(0.06172839506172839,0,0,0.06172839506172839,60.37037037037036,0)" xlink:href="#H"/><use transform="matrix(0.06172839506172839,0,0,0.06172839506172839,66.5432098765432,0)" xlink:href="#Z"/><use transform="matrix(0.06172839506172839,0,0,0.06172839506172839,71.41975308641975,0)" xlink:href="#E"/><use transform="matrix(0.06172839506172839,0,0,0.06172839506172839,83.76543209876543,0)" xlink:href="#K"/></g><g id="u"><use transform="matrix(0.06172839506172839,0,0,0.06172839506172839,0,0)" xlink:href="#F"/><use transform="matrix(0.06172839506172839,0,0,0.06172839506172839,11.11111111111111,0)" xlink:href="#E"/><use transform="matrix(0.06172839506172839,0,0,0.06172839506172839,23.45679012345679,0)" xlink:href="#ab"/><use transform="matrix(0.06172839506172839,0,0,0.06172839506172839,41.91358024691358,0)" xlink:href="#aa"/><use transform="matrix(0.06172839506172839,0,0,0.06172839506172839,54.25925925925926,0)" xlink:href="#D"/><use transform="matrix(0.06172839506172839,0,0,0.06172839506172839,59.135802469135804,0)" xlink:href="#I"/><use transform="matrix(0.06172839506172839,0,0,0.06172839506172839,71.48148148148148,0)" xlink:href="#H"/><use transform="matrix(0.06172839506172839,0,0,0.06172839506172839,77.65432098765432,0)" xlink:href="#I"/></g><path fill="#333" d="M16-82v-28h88v28H16" id="ac"/><g id="v"><use transform="matrix(0.06172839506172839,0,0,0.06172839506172839,0,0)" xlink:href="#K"/><use transform="matrix(0.06172839506172839,0,0,0.06172839506172839,12.345679012345679,0)" xlink:href="#E"/><use transform="matrix(0.06172839506172839,0,0,0.06172839506172839,24.691358024691358,0)" xlink:href="#K"/><use transform="matrix(0.06172839506172839,0,0,0.06172839506172839,37.03703703703704,0)" xlink:href="#ac"/><use transform="matrix(0.06172839506172839,0,0,0.06172839506172839,44.382716049382715,0)" xlink:href="#G"/><use transform="matrix(0.06172839506172839,0,0,0.06172839506172839,56.72839506172839,0)" xlink:href="#D"/><use transform="matrix(0.06172839506172839,0,0,0.06172839506172839,61.60493827160494,0)" xlink:href="#D"/><use transform="matrix(0.06172839506172839,0,0,0.06172839506172839,66.48148148148148,0)" xlink:href="#Z"/><use transform="matrix(0.06172839506172839,0,0,0.06172839506172839,71.35802469135803,0)" xlink:href="#G"/><use transform="matrix(0.06172839506172839,0,0,0.06172839506172839,83.70370370370371,0)" xlink:href="#K"/><use transform="matrix(0.06172839506172839,0,0,0.06172839506172839,96.0493827160494,0)" xlink:href="#F"/><use transform="matrix(0.06172839506172839,0,0,0.06172839506172839,107.16049382716051,0)" xlink:href="#I"/></g><g id="w"><use transform="matrix(0.06172839506172839,0,0,0.06172839506172839,0,0)" xlink:href="#R"/><use transform="matrix(0.06172839506172839,0,0,0.06172839506172839,12.345679012345679,0)" xlink:href="#G"/><use transform="matrix(0.06172839506172839,0,0,0.06172839506172839,24.691358024691358,0)" xlink:href="#S"/><use transform="matrix(0.06172839506172839,0,0,0.06172839506172839,35.80246913580247,0)" xlink:href="#I"/></g><g id="x"><use transform="matrix(0.06172839506172839,0,0,0.06172839506172839,0,0)" xlink:href="#O"/><use transform="matrix(0.06172839506172839,0,0,0.06172839506172839,11.11111111111111,0)" xlink:href="#aa"/><use transform="matrix(0.06172839506172839,0,0,0.06172839506172839,23.45679012345679,0)" xlink:href="#G"/><use transform="matrix(0.06172839506172839,0,0,0.06172839506172839,35.80246913580247,0)" xlink:href="#Q"/><use transform="matrix(0.06172839506172839,0,0,0.06172839506172839,43.148148148148145,0)" xlink:href="#I"/></g><g id="y"><use transform="matrix(0.06172839506172839,0,0,0.06172839506172839,0,0)" xlink:href="#K"/><use transform="matrix(0.06172839506172839,0,0,0.06172839506172839,12.345679012345679,0)" xlink:href="#E"/><use transform="matrix(0.06172839506172839,0,0,0.06172839506172839,24.691358024691358,0)" xlink:href="#K"/><use transform="matrix(0.06172839506172839,0,0,0.06172839506172839,37.03703703703704,0)" xlink:href="#ac"/><use transform="matrix(0.06172839506172839,0,0,0.06172839506172839,44.382716049382715,0)" xlink:href="#G"/><use transform="matrix(0.06172839506172839,0,0,0.06172839506172839,56.72839506172839,0)" xlink:href="#D"/><use transform="matrix(0.06172839506172839,0,0,0.06172839506172839,61.60493827160494,0)" xlink:href="#D"/><use transform="matrix(0.06172839506172839,0,0,0.06172839506172839,66.48148148148148,0)" xlink:href="#Z"/><use transform="matrix(0.06172839506172839,0,0,0.06172839506172839,71.35802469135803,0)" xlink:href="#G"/><use transform="matrix(0.06172839506172839,0,0,0.06172839506172839,83.70370370370371,0)" xlink:href="#K"/><use transform="matrix(0.06172839506172839,0,0,0.06172839506172839,96.0493827160494,0)" xlink:href="#F"/><use transform="matrix(0.06172839506172839,0,0,0.06172839506172839,107.16049382716051,0)" xlink:href="#I"/></g><g id="z"><use transform="matrix(0.06172839506172839,0,0,0.06172839506172839,0,0)" xlink:href="#Z"/><use transform="matrix(0.06172839506172839,0,0,0.06172839506172839,4.876543209876543,0)" xlink:href="#K"/><use transform="matrix(0.06172839506172839,0,0,0.06172839506172839,17.22222222222222,0)" xlink:href="#F"/><use transform="matrix(0.06172839506172839,0,0,0.06172839506172839,28.333333333333332,0)" xlink:href="#E"/><use transform="matrix(0.06172839506172839,0,0,0.06172839506172839,40.67901234567901,0)" xlink:href="#ab"/><use transform="matrix(0.06172839506172839,0,0,0.06172839506172839,59.1358024691358,0)" xlink:href="#aa"/><use transform="matrix(0.06172839506172839,0,0,0.06172839506172839,71.48148148148148,0)" xlink:href="#D"/><use transform="matrix(0.06172839506172839,0,0,0.06172839506172839,76.35802469135803,0)" xlink:href="#I"/><use transform="matrix(0.06172839506172839,0,0,0.06172839506172839,88.70370370370371,0)" xlink:href="#H"/><use transform="matrix(0.06172839506172839,0,0,0.06172839506172839,94.87654320987654,0)" xlink:href="#I"/></g><path fill="#333" d="M175 0L67-191c6 58 2 128 3 191H24v-248h59L193-55c-6-58-2-129-3-193h46V0h-61" id="ad"/><path fill="#333" d="M110-194c64 0 96 36 96 99 0 64-35 99-97 99-61 0-95-36-95-99 0-62 34-99 96-99zm-1 164c35 0 45-28 45-65 0-40-10-65-43-65-34 0-45 26-45 65 0 36 10 65 43 65" id="ae"/><g id="A"><use transform="matrix(0.04938271604938272,0,0,0.04938271604938272,0,0)" xlink:href="#ad"/><use transform="matrix(0.04938271604938272,0,0,0.04938271604938272,12.790123456790125,0)" xlink:href="#ae"/></g><path fill="#333" d="M146-102V0H94v-102L6-248h54l60 105 60-105h54" id="af"/><path fill="#333" d="M185-48c-13 30-37 53-82 52C43 2 14-33 14-96s30-98 90-98c62 0 83 45 84 108H66c0 31 8 55 39 56 18 0 30-7 34-22zm-45-69c5-46-57-63-70-21-2 6-4 13-4 21h74" id="ag"/><path fill="#333" d="M137-138c1-29-70-34-71-4 15 46 118 7 119 86 1 83-164 76-172 9l43-7c4 19 20 25 44 25 33 8 57-30 24-41C81-84 22-81 20-136c-2-80 154-74 161-7" id="ah"/><g id="B"><use transform="matrix(0.04938271604938272,0,0,0.04938271604938272,0,0)" xlink:href="#af"/><use transform="matrix(0.04938271604938272,0,0,0.04938271604938272,10.864197530864198,0)" xlink:href="#ag"/><use transform="matrix(0.04938271604938272,0,0,0.04938271604938272,20.74074074074074,0)" xlink:href="#ah"/></g></defs></g></svg>